PathFileType	4	(X/Y/Z)	/Users/itak/Documents/Research/Walk-IL/dataset/trc/00350_00011.trc
DataRate	CameraRate	NumFrames	NumMarkers	Units	OrigDataRate	OrigDataStartFrame	OrigNumFrames
100.000000	100.000000	4	53	mm	100.000000	365	730
Frame#	Time	RPSI			LPSI			STRN			T10			C7			CLAV			RBAK			LBAK			LSHO			LUPA			LAEL			LAOL			LWTS			LWPS			LFRA			LIFD			LHPS			LHTS			RSHO			RUPA			RAEL			RAOL			RWTS			RWPS			RFRA			RIFD			RHTS			RHPS			RBHD			LFHD			RFHD			LBHD			LHIP			RHIP			RASI			LASI			LKNE			LTHI			LANK			LTIP			LTOE			LMT1			LMT5			LHEE			RKNE			RANK			RTIP			RTOE			RMT1			RMT5			RHEE			L3			RTHI			
		X1	Y1	Z1	X2	Y2	Z2	X3	Y3	Z3	X4	Y4	Z4	X5	Y5	Z5	X6	Y6	Z6	X7	Y7	Z7	X8	Y8	Z8	X9	Y9	Z9	X10	Y10	Z10	X11	Y11	Z11	X12	Y12	Z12	X13	Y13	Z13	X14	Y14	Z14	X15	Y15	Z15	X16	Y16	Z16	X17	Y17	Z17	X18	Y18	Z18	X19	Y19	Z19	X20	Y20	Z20	X21	Y21	Z21	X22	Y22	Z22	X23	Y23	Z23	X24	Y24	Z24	X25	Y25	Z25	X26	Y26	Z26	X27	Y27	Z27	X28	Y28	Z28	X29	Y29	Z29	X30	Y30	Z30	X31	Y31	Z31	X32	Y32	Z32	X33	Y33	Z33	X34	Y34	Z34	X35	Y35	Z35	X36	Y36	Z36	X37	Y37	Z37	X38	Y38	Z38	X39	Y39	Z39	X40	Y40	Z40	X41	Y41	Z41	X42	Y42	Z42	X43	Y43	Z43	X44	Y44	Z44	X45	Y45	Z45	X46	Y46	Z46	X47	Y47	Z47	X48	Y48	Z48	X49	Y49	Z49	X50	Y50	Z50	X51	Y51	Z51	X52	Y52	Z52	X53	Y53	Z53	

366	3.65	128.8552856445312	934.3465576171875	-332.0900573730469	175.5919647216797	949.5057983398438	-451.74267578125	374.8480834960938	1174.522583007812	-300.5750427246094	159.229248046875	1126.848999023438	-420.677001953125	224.5504608154297	1369.570434570312	-403.9831237792969	348.1588439941406	1303.42236328125	-318.2081909179688	136.6022491455078	1237.605834960938	-378.6675415039062	266.6332092285156	1332.17578125	-497.0335083007812	366.5616760253906	1350.095947265625	-496.5880737304688	403.5040588378906	1244.377685546875	-574.2036743164062	500.7027282714844	1069.295166015625	-611.2930297851562	436.0773620605469	1019.098083496094	-583.3554077148438	700.8495483398438	927.3707885742188	-543.641357421875	686.1387939453125	896.720458984375	-603.8649291992188	569.2130737304688	990.2160034179688	-617.3006591796875	808.5822143554688	810.2932739257812	-532.482177734375	729.5847778320312	843.126220703125	-596.9169311523438	763.7877807617188	878.8593139648438	-555.5475463867188	182.8847351074219	1356.235107421875	-239.0745239257812	124.4827423095703	1300.354858398438	-204.1336517333984	19.51461029052734	1058.423950195312	-229.6909637451172	71.97901916503906	1043.074951171875	-305.9224243164062	20.05959892272949	808.5208740234375	-179.4894866943359	-55.0175666809082	821.1098022460938	-190.3271636962891	-1.745785355567932	992.8506469726562	-213.3148956298828	-43.7685546875	648.1172485351562	-194.2711944580078	-23.58922576904297	708.9620361328125	-163.3137512207031	-77.99122619628906	739.1383666992188	-188.8778381347656	239.2704010009766	1574.9443359375	-297.4599609375	444.6493225097656	1551.105834960938	-272.4736328125	370.8737487792969	1549.7509765625	-203.2874145507812	325.0112915039062	1578.281372070312	-412.9784851074219	287.7330322265625	894.8536376953125	-527.3033447265625	172.4581756591797	878.1661376953125	-206.8319396972656	283.688232421875	909.291015625	-214.9583282470703	386.2578735351562	909.959228515625	-431.8008422851562	239.4561157226562	453.243896484375	-555.5350341796875	274.6121520996094	585.4404907226562	-545.9578247070312	42.92974472045898	64.06873321533203	-613.7192993164062	146.3594970703125	251.1133422851562	-599.3418579101562	248.6343231201172	36.67122268676758	-567.378662109375	181.78173828125	27.49353218078613	-521.035888671875	164.2837219238281	42.1085090637207	-632.9534912109375	10.55901527404785	57.6025276184082	-545.4574584960938	365.0109558105469	440.3116149902344	-190.6475677490234	506.2355041503906	49.48565292358398	-192.3585052490234	419.1768798828125	340.899658203125	-178.1513671875	655.0030517578125	126.9584503173828	-91.26657104492188	656.4205932617188	101.7657699584961	-155.6613616943359	553.71484375	72.49681091308594	-104.5912017822266	505.9024047851562	39.26007080078125	-260.8986511230469	152.3825836181641	1009.979187011719	-397.3725280761719	280.755859375	687.0159912109375	-162.0431671142578	
367	3.66	136.1189575195312	932.373779296875	-328.4245300292969	183.9053039550781	948.1618041992188	-447.5675354003906	381.6329956054688	1173.243408203125	-295.1791076660156	167.0928039550781	1125.076293945312	-416.2034606933594	231.4988250732422	1368.068603515625	-399.4143981933594	354.7515258789062	1302.119873046875	-312.8895874023438	143.6200103759766	1235.846313476562	-374.8192138671875	274.1134338378906	1330.758911132812	-492.2173461914062	374.0612182617188	1348.614013671875	-491.27294921875	411.2684631347656	1242.69384765625	-568.5175170898438	508.5185241699219	1067.410400390625	-605.0017700195312	443.7071838378906	1017.242492675781	-577.7239379882812	707.715087890625	925.8003540039062	-534.4428100585938	693.9423828125	895.0424194335938	-594.851806640625	577.0755615234375	988.413330078125	-610.065673828125	815.34619140625	808.8612670898438	-521.4420776367188	737.4585571289062	841.5936889648438	-587.2355346679688	770.8818359375	877.3389282226562	-545.2916870117188	188.6288146972656	1354.417602539062	-234.7462310791016	130.0928192138672	1298.1240234375	-200.6083068847656	26.48995399475098	1055.8896484375	-229.2593231201172	80.29460906982422	1041.04443359375	-304.5618896484375	26.12734222412109	805.6886596679688	-180.5720977783203	-48.71944427490234	818.4595947265625	-192.7066802978516	5.073021411895752	990.280517578125	-213.6271667480469	-37.32855987548828	645.4420166015625	-198.0423126220703	-17.7874698638916	705.9197387695312	-166.5164489746094	-71.66058349609375	736.3773193359375	-192.5475311279297	245.4590911865234	1573.74609375	-293.2662963867188	450.5964050292969	1549.95166015625	-266.7005004882812	376.3523864746094	1548.695556640625	-198.017822265625	332.0398254394531	1576.887084960938	-408.1312561035156	296.4059753417969	894.0015258789062	-522.8614501953125	179.7473907470703	875.8936767578125	-202.9134063720703	290.9403686523438	907.2062377929688	-210.5192413330078	394.6150207519531	908.6683349609375	-426.9408874511719	245.1781158447266	453.2745971679688	-553.15869140625	281.2701416015625	585.1419677734375	-542.9632568359375	43.79590606689453	66.62725830078125	-613.879638671875	149.6330718994141	252.3673858642578	-598.1923217773438	248.8838500976562	36.5883674621582	-567.4890747070312	182.0884552001953	27.64630126953125	-521.0733642578125	164.7994384765625	42.62387466430664	-633.076416015625	11.22428607940674	60.56160354614258	-545.63037109375	371.7825317382812	438.4094848632812	-186.5626373291016	513.8573608398438	48.46143341064453	-186.3572998046875	425.6224975585938	339.4852600097656	-173.3421020507812	659.7551879882812	126.3023071289062	-81.90219879150391	662.8538208007812	101.3876571655273	-146.3220672607422	559.1531982421875	71.47676849365234	-97.38135528564453	515.1898193359375	38.33662414550781	-254.7841339111328	160.4519195556641	1008.223510742188	-393.1333312988281	287.6765441894531	684.6895751953125	-158.3329162597656	
368	3.67	143.2521362304688	930.6129760742188	-324.6993408203125	192.3628234863281	946.9221801757812	-443.2070007324219	388.454833984375	1172.074096679688	-289.4431762695312	175.0792694091797	1123.375854492188	-411.5359191894531	238.4522552490234	1366.646118164062	-394.5989685058594	361.3466796875	1300.932739257812	-307.2778625488281	150.7073211669922	1234.152709960938	-370.7638549804688	281.6138000488281	1329.456176757812	-487.1348266601562	381.5880126953125	1347.19091796875	-485.6808776855469	418.9489135742188	1241.018676757812	-562.550537109375	516.0198974609375	1065.42578125	-598.498291015625	450.9421997070312	1015.402282714844	-571.81787109375	714.007080078125	923.7926025390625	-525.0874633789062	701.1425170898438	893.00048828125	-585.6915893554688	584.4832153320312	986.4392700195312	-602.6297607421875	821.2890014648438	806.783935546875	-510.2796630859375	744.6298217773438	839.625	-577.4462280273438	777.3070678710938	875.2888793945312	-534.88525390625	194.34521484375	1352.683471679688	-230.2050170898438	135.7057189941406	1295.964965820312	-196.8541107177734	33.60095596313477	1053.36767578125	-228.3377227783203	88.45093536376953	1039.11328125	-302.8622436523438	32.65224838256836	802.869384765625	-181.3372039794922	-41.97023391723633	815.7578125	-194.5421142578125	12.15879535675049	987.690185546875	-213.4194030761719	-30.25381278991699	642.7398681640625	-201.5882873535156	-11.25335502624512	702.8473510742188	-169.3963012695312	-64.78660583496094	733.5399169921875	-195.7438354492188	251.5892791748047	1572.670166015625	-288.8486022949219	456.4901428222656	1548.897827148438	-260.7114868164062	381.7970886230469	1547.7685546875	-192.5430297851562	339.0066833496094	1575.592651367188	-403.0688781738281	305.3072204589844	893.220458984375	-518.1317749023438	187.0877990722656	873.8966674804688	-198.7754821777344	298.2480163574219	905.2886352539062	-205.8331604003906	403.1397094726562	907.430908203125	-421.7891235351562	251.3901824951172	453.3027648925781	-550.5673217773438	288.3644104003906	584.8216552734375	-539.7390747070312	44.81171417236328	69.50431060791016	-614.15625	153.2567443847656	253.76220703125	-596.9876708984375	249.1372528076172	36.50778198242188	-567.6324462890625	182.4081420898438	27.85420799255371	-521.1181640625	165.4290924072266	43.19942855834961	-633.2606201171875	12.09442043304443	63.85612106323242	-545.907470703125	379.1307067871094	436.9523010253906	-181.7382507324219	519.34326171875	46.92583465576172	-182.0685424804688	432.2255554199219	337.8285522460938	-168.3786926269531	662.8491821289062	123.4571151733398	-73.90154266357422	667.434814453125	99.0213623046875	-138.3570251464844	562.5697021484375	69.19565582275391	-91.84656524658203	522.419677734375	37.23062896728516	-250.3385162353516	168.6058959960938	1006.521789550781	-388.8038024902344	295.1257019042969	683.084716796875	-154.1293487548828	
369	3.68	150.4584655761719	929.1107177734375	-320.8453063964844	200.9989776611328	945.8082885742188	-438.6476135253906	395.3291015625	1171.030639648438	-283.3604125976562	183.1825561523438	1121.768188476562	-406.7109680175781	245.4244995117188	1365.314086914062	-389.5458984375	367.9545288085938	1299.874755859375	-301.3706359863281	157.8970947265625	1232.539428710938	-366.5179138183594	289.157958984375	1328.282958984375	-481.7954711914062	389.16796875	1345.849365234375	-479.8074035644531	426.5903930664062	1239.384399414062	-556.2967529296875	523.2064819335938	1063.35791015625	-591.7863159179688	457.7708740234375	1013.615173339844	-565.6346435546875	719.7212524414062	921.3483276367188	-515.5845336914062	707.739013671875	890.6087646484375	-576.3984985351562	591.43310546875	984.3062744140625	-595.0045776367188	826.4112548828125	804.0579223632812	-499.0187683105469	751.0919799804688	837.2286987304688	-567.5696411132812	783.0619506835938	872.7137451171875	-524.3555908203125	200.0458374023438	1351.050659179688	-225.4654998779297	141.3291473388672	1293.900634765625	-192.8832397460938	40.84983825683594	1050.88330078125	-226.9197692871094	96.44735717773438	1037.300170898438	-300.8240966796875	39.64258575439453	800.090087890625	-181.7436065673828	-34.77681732177734	813.0316162109375	-195.7709197998047	19.48342323303223	985.1088256835938	-212.6727752685547	-22.55929183959961	640.046630859375	-204.8807525634766	-4.032527923583984	699.766357421875	-171.8842010498047	-57.38042831420898	730.6597900390625	-198.4003295898438	257.6502685546875	1571.71142578125	-284.2138366699219	462.3207702636719	1547.971557617188	-254.4883880615234	387.1969299316406	1546.988525390625	-186.8589935302734	345.9164733886719	1574.405883789062	-397.789794921875	314.4532775878906	892.4906005859375	-513.1048583984375	194.4911956787109	872.2192993164062	-194.4336395263672	305.6324157714844	903.5946044921875	-200.8831329345703	411.8519592285156	906.267822265625	-416.3267822265625	258.1339416503906	453.3259582519531	-547.7140502929688	295.9464416503906	584.4692993164062	-536.24560546875	46.01441192626953	72.72985076904297	-614.5399169921875	157.2467346191406	255.3303985595703	-595.7115478515625	249.3745269775391	36.43659210205078	-567.8076171875	182.7285766601562	28.1259765625	-521.163818359375	166.1949157714844	43.84416580200195	-633.5200805664062	13.17991352081299	67.54048919677734	-546.2877197265625	386.903076171875	435.8507690429688	-176.2652282714844	522.9967651367188	45.00576019287109	-179.3581085205078	438.9245910644531	335.9302978515625	-163.3271331787109	664.57080078125	118.6768493652344	-67.17929077148438	670.4658813476562	94.84346008300781	-131.6648712158203	564.287109375	65.85425567626953	-87.85511016845703	527.9202880859375	35.97677230834961	-247.4166412353516	176.8426971435547	1004.884704589844	-384.406982421875	303.0543212890625	682.1939697265625	-149.4058227539062	
